<svg width="32" height="33" viewBox="0 0 32 33" fill="none" xmlns="http://www.w3.org/2000/svg">
<path opacity="0.2" d="M5.6786 22.9191C4.18768 20.4058 3.66554 17.4346 4.21024 14.5636C4.75494 11.6925 6.329 9.11903 8.63685 7.32641C10.9447 5.53378 13.8276 4.6453 16.7442 4.82781C19.6607 5.01032 22.4103 6.25127 24.4767 8.31762C26.5431 10.384 27.784 13.1336 27.9666 16.0502C28.1491 18.9667 27.2606 21.8496 25.468 24.1575C23.6754 26.4653 21.1019 28.0394 18.2309 28.5841C15.3598 29.1288 12.3887 28.6067 9.87532 27.1158L9.87534 27.1157L5.73077 28.2998C5.5593 28.3488 5.37784 28.3511 5.20521 28.3063C5.03257 28.2616 4.87504 28.1715 4.74894 28.0454C4.62283 27.9193 4.53275 27.7618 4.48802 27.5892C4.44328 27.4165 4.44553 27.2351 4.49452 27.0636L5.67869 22.919L5.6786 22.9191Z" fill="#175FBE"/>
<path d="M5.6786 22.9191C4.18768 20.4058 3.66554 17.4346 4.21024 14.5636C4.75494 11.6925 6.329 9.11903 8.63685 7.32641C10.9447 5.53378 13.8276 4.6453 16.7442 4.82781C19.6607 5.01032 22.4103 6.25127 24.4767 8.31762C26.5431 10.384 27.784 13.1336 27.9666 16.0502C28.1491 18.9667 27.2606 21.8496 25.468 24.1575C23.6754 26.4653 21.1019 28.0394 18.2309 28.5841C15.3598 29.1288 12.3887 28.6067 9.87532 27.1158L9.87534 27.1157L5.73077 28.2998C5.5593 28.3488 5.37784 28.3511 5.20521 28.3063C5.03257 28.2616 4.87504 28.1715 4.74894 28.0454C4.62283 27.9193 4.53275 27.7618 4.48802 27.5892C4.44328 27.4165 4.44553 27.2351 4.49452 27.0636L5.67869 22.919L5.6786 22.9191Z" stroke="#175FBE" stroke-width="2" stroke-linecap="round" stroke-linejoin="round"/>
<path d="M12 14.7943H20" stroke="#175FBE" stroke-width="2" stroke-linecap="round" stroke-linejoin="round"/>
<path d="M12 18.7943H20" stroke="#175FBE" stroke-width="2" stroke-linecap="round" stroke-linejoin="round"/>
</svg>
