<svg width="26" height="27" viewBox="0 0 26 27" fill="none" xmlns="http://www.w3.org/2000/svg">
<path opacity="0.2" d="M4.61386 18.5104C3.40249 16.4684 2.97825 14.0543 3.42082 11.7216C3.86339 9.38883 5.14232 7.29789 7.01744 5.84138C8.89257 4.38487 11.2349 3.66298 13.6046 3.81127C15.9743 3.95956 18.2084 4.96783 19.8873 6.64674C21.5662 8.32566 22.5745 10.5597 22.7228 12.9294C22.8711 15.2991 22.1492 17.6415 20.6927 19.5166C19.2362 21.3918 17.1453 22.6707 14.8126 23.1133C12.4798 23.5558 10.0658 23.1316 8.02369 21.9203L8.02372 21.9202L4.65625 22.8823C4.51693 22.9221 4.3695 22.9239 4.22923 22.8876C4.08896 22.8512 3.96097 22.778 3.85851 22.6756C3.75605 22.5731 3.68286 22.4451 3.64651 22.3049C3.61017 22.1646 3.61199 22.0172 3.6518 21.8778L4.61393 18.5104L4.61386 18.5104Z" fill="white"/>
<path d="M4.61386 18.5104C3.40249 16.4684 2.97825 14.0543 3.42082 11.7216C3.86339 9.38883 5.14232 7.29789 7.01744 5.84138C8.89257 4.38487 11.2349 3.66298 13.6046 3.81127C15.9743 3.95956 18.2084 4.96783 19.8873 6.64674C21.5662 8.32566 22.5745 10.5597 22.7228 12.9294C22.8711 15.2991 22.1492 17.6415 20.6927 19.5166C19.2362 21.3918 17.1453 22.6707 14.8126 23.1133C12.4798 23.5558 10.0658 23.1316 8.02369 21.9203L8.02372 21.9202L4.65625 22.8823C4.51693 22.9221 4.3695 22.9239 4.22923 22.8876C4.08896 22.8512 3.96097 22.778 3.85851 22.6756C3.75605 22.5731 3.68286 22.4451 3.64651 22.3049C3.61017 22.1646 3.61199 22.0172 3.6518 21.8778L4.61393 18.5104L4.61386 18.5104Z" stroke="white" stroke-width="1.625" stroke-linecap="round" stroke-linejoin="round"/>
<path d="M9.75 11.9092H16.25" stroke="white" stroke-width="1.625" stroke-linecap="round" stroke-linejoin="round"/>
<path d="M9.75 15.1592H16.25" stroke="white" stroke-width="1.625" stroke-linecap="round" stroke-linejoin="round"/>
</svg>
