<svg width="143" height="42" viewBox="0 0 143 42" fill="none" xmlns="http://www.w3.org/2000/svg">
<path d="M131.192 0.0001365H11.8144C11.3792 0.0001365 10.9493 0.0001365 10.5153 0.00223649C10.152 0.00433649 9.79162 0.010437 9.42483 0.0155714C8.62801 0.0238683 7.83306 0.0858963 7.0469 0.201116C6.26183 0.318845 5.50136 0.540796 4.79121 0.859464C4.08192 1.18083 3.43382 1.59841 2.87043 2.09705C2.30407 2.5943 1.83198 3.16904 1.47229 3.79919C1.1116 4.42809 0.861503 5.10201 0.730626 5.79767C0.598505 6.49246 0.52741 7.19526 0.517978 7.89977C0.506966 8.22169 0.505803 8.54469 0.5 8.86666V33.1366C0.505803 33.4626 0.506966 33.7784 0.517978 34.1045C0.527413 34.809 0.598508 35.5118 0.730626 36.2065C0.861142 36.9026 1.11126 37.5769 1.47229 38.206C1.83181 38.8342 2.30398 39.4066 2.87043 39.9011C3.43168 40.4019 4.0802 40.8198 4.79121 41.1387C5.50136 41.4582 6.26175 41.6815 7.0469 41.801C7.8332 41.9153 8.62806 41.9774 9.42483 41.9867C9.79162 41.9938 10.152 41.9979 10.5153 41.9979C10.9493 42 11.3793 42 11.8144 42H131.192C131.618 42 132.052 42 132.478 41.9979C132.84 41.9979 133.211 41.9938 133.572 41.9867C134.368 41.9779 135.161 41.9158 135.946 41.801C136.733 41.6806 137.496 41.4574 138.21 41.1387C138.92 40.8196 139.568 40.4017 140.129 39.9011C140.694 39.4046 141.167 38.8326 141.531 38.206C141.89 37.5765 142.137 36.9022 142.266 36.2065C142.398 35.5117 142.472 34.8091 142.486 34.1045C142.491 33.7784 142.491 33.4626 142.491 33.1366C142.5 32.7551 142.5 32.3757 142.5 31.9881V10.013C142.5 9.62852 142.5 9.24708 142.491 8.86666C142.491 8.54469 142.491 8.22169 142.486 7.89972C142.472 7.19516 142.398 6.49251 142.266 5.79763C142.137 5.10237 141.889 4.4285 141.531 3.79915C140.799 2.53608 139.637 1.50796 138.21 0.85937C137.496 0.54148 136.733 0.319588 135.946 0.201022C135.161 0.0852941 134.368 0.0232446 133.572 0.0154244C133.211 0.0103005 132.84 0.00414749 132.478 0.00209999C132.052 0 131.618 0 131.192 0V0.0001365Z" fill="#A1A4B2"/>
<path d="M10.4191 41.0846C10.0569 41.0846 9.70345 41.0805 9.34412 41.0733C8.59973 41.0648 7.85708 41.0075 7.12226 40.9021C6.43708 40.7978 5.77333 40.6039 5.15289 40.3266C4.53814 40.0517 3.97744 39.6912 3.49227 39.259C3.00007 38.8318 2.5903 38.3364 2.27918 37.7924C1.96464 37.2448 1.74696 36.6578 1.63372 36.052C1.51143 35.4009 1.44527 34.7427 1.4358 34.0828C1.42826 33.8613 1.4184 33.1238 1.4184 33.1238V8.86326C1.4184 8.86326 1.4289 8.13713 1.43586 7.9238C1.44492 7.26498 1.5107 6.60773 1.63262 5.95772C1.74607 5.35019 1.96392 4.76155 2.27864 4.21216C2.58861 3.66848 2.99611 3.17269 3.48534 2.74401C3.97402 2.31126 4.53651 1.94892 5.15231 1.67019C5.77132 1.39387 6.43382 1.2013 7.11761 1.09894C7.85485 0.992413 8.60007 0.934819 9.34704 0.926642L10.4196 0.913818H132.581L133.666 0.927156C134.407 0.934927 135.145 0.992007 135.876 1.09791C136.566 1.20155 137.236 1.39546 137.862 1.67327C139.095 2.23498 140.099 3.12364 140.732 4.21472C141.042 4.76032 141.257 5.34416 141.369 5.94644C141.492 6.60178 141.561 7.2642 141.575 7.92842C141.579 8.22584 141.579 8.54532 141.579 8.86326C141.588 9.25709 141.588 9.63195 141.588 10.0099V31.9895C141.588 32.371 141.588 32.7434 141.579 33.1187C141.579 33.4602 141.579 33.7731 141.574 34.0951C141.56 34.7475 141.492 35.398 141.371 36.0417C141.26 36.6519 141.044 37.2434 140.729 37.7955C140.416 38.3337 140.008 38.8248 139.522 39.2508C139.036 39.6854 138.474 40.048 137.858 40.3246C137.234 40.604 136.566 40.7987 135.876 40.9021C135.141 41.0081 134.398 41.0653 133.654 41.0733C133.305 41.0805 132.941 41.0846 132.587 41.0846L131.298 41.0867L10.4191 41.0846Z" fill="#1F1F1F"/>
<path d="M34.9978 21.3154C35.0091 20.439 35.2423 19.5797 35.6757 18.8175C36.1091 18.0552 36.7286 17.4148 37.4766 16.9558C37.0014 16.2784 36.3745 15.7209 35.6458 15.3276C34.917 14.9343 34.1065 14.7161 33.2784 14.6902C31.5121 14.5051 29.7998 15.7453 28.8997 15.7453C27.9822 15.7453 26.5964 14.7086 25.1041 14.7392C24.1388 14.7704 23.1981 15.0506 22.3736 15.5525C21.5491 16.0545 20.8689 16.7611 20.3992 17.6035C18.365 21.1193 19.8823 26.2864 21.831 29.1283C22.806 30.5199 23.9454 32.0744 25.4364 32.0193C26.8954 31.9589 27.4403 31.0906 29.2014 31.0906C30.9461 31.0906 31.4574 32.0193 32.9786 31.9842C34.5441 31.9589 35.5305 30.5864 36.4713 29.1817C37.1718 28.1901 37.7108 27.0942 38.0684 25.9345C37.1589 25.5505 36.3827 24.9077 35.8366 24.0863C35.2906 23.2649 34.9989 22.3012 34.9978 21.3154Z" fill="white"/>
<path d="M32.1246 12.8219C32.9782 11.799 33.3987 10.4842 33.2969 9.15674C31.9927 9.29347 30.7881 9.91565 29.923 10.8993C29.5 11.3799 29.176 11.9389 28.9696 12.5445C28.7632 13.1501 28.6783 13.7904 28.72 14.4288C29.3722 14.4355 30.0176 14.2943 30.6073 14.016C31.197 13.7377 31.7158 13.3294 32.1246 12.8219Z" fill="white"/>
<path d="M53.4403 28.497H48.4615L47.2658 32.0213H45.157L49.8729 18.9824H52.0639L56.7797 32.0213H54.6349L53.4403 28.497ZM48.9771 26.8708H52.9237L50.9782 21.1511H50.9237L48.9771 26.8708Z" fill="white"/>
<path d="M66.9645 27.268C66.9645 30.2221 65.3806 32.1201 62.9903 32.1201C62.3848 32.1518 61.7826 32.0125 61.2527 31.7184C60.7228 31.4242 60.2865 30.9871 59.994 30.4569H59.9487V35.1655H57.994V22.5143H59.8861V24.0955H59.922C60.2281 23.5679 60.6717 23.133 61.2056 22.837C61.7396 22.5411 62.3439 22.3952 62.9543 22.4148C65.3713 22.4148 66.9645 24.3221 66.9645 27.268ZM64.9553 27.268C64.9553 25.3434 63.9589 24.078 62.4387 24.078C60.9451 24.078 59.9405 25.37 59.9405 27.268C59.9405 29.1834 60.9451 30.4662 62.4387 30.4662C63.9589 30.4662 64.9553 29.2101 64.9553 27.268Z" fill="white"/>
<path d="M77.4461 27.268C77.4461 30.2221 75.8622 32.1201 73.4719 32.1201C72.8664 32.1517 72.2642 32.0125 71.7343 31.7184C71.2044 31.4242 70.7682 30.9871 70.4756 30.4569H70.4303V35.1655H68.4756V22.5143H70.3677V24.0954H70.4036C70.7097 23.5679 71.1533 23.133 71.6872 22.837C72.2212 22.5411 72.8255 22.3952 73.4359 22.4148C75.853 22.4148 77.4461 24.3221 77.4461 27.268ZM75.4369 27.268C75.4369 25.3434 74.4406 24.078 72.9203 24.078C71.4268 24.078 70.4222 25.37 70.4222 27.268C70.4222 29.1834 71.4268 30.4662 72.9203 30.4662C74.4406 30.4662 75.4369 29.2101 75.4369 27.268H75.4369Z" fill="white"/>
<path d="M84.3734 28.388C84.5182 29.681 85.7766 30.53 87.4961 30.53C89.1437 30.53 90.3291 29.6809 90.3291 28.5151C90.3291 27.503 89.6142 26.897 87.9213 26.4817L86.2285 26.0746C83.83 25.4963 82.7165 24.3766 82.7165 22.5596C82.7165 20.3099 84.6805 18.7646 87.4694 18.7646C90.2294 18.7646 92.1215 20.3099 92.1852 22.5596H90.212C90.0938 21.2584 89.0163 20.4729 87.4416 20.4729C85.8669 20.4729 84.7894 21.2676 84.7894 22.4243C84.7894 23.3461 85.4776 23.8885 87.1612 24.3038L88.6003 24.6565C91.2802 25.2892 92.3937 26.3638 92.3937 28.271C92.3937 30.7104 90.4472 32.2382 87.3512 32.2382C84.4545 32.2382 82.4987 30.7463 82.3724 28.3879L84.3734 28.388Z" fill="white"/>
<path d="M96.6125 20.2644V22.5141H98.4235V24.0594H96.6125V29.3001C96.6125 30.1143 96.9751 30.4937 97.7712 30.4937C97.9862 30.4899 98.2008 30.4749 98.4142 30.4485V31.9845C98.0563 32.0513 97.6925 32.0815 97.3285 32.0748C95.4004 32.0748 94.6485 31.3519 94.6485 29.5082V24.0594H93.2639V22.5141H94.6485V20.2644H96.6125Z" fill="white"/>
<path d="M99.4725 27.2678C99.4725 24.2768 101.237 22.3972 103.989 22.3972C106.75 22.3972 108.507 24.2767 108.507 27.2678C108.507 30.2671 106.759 32.1384 103.989 32.1384C101.22 32.1384 99.4725 30.2671 99.4725 27.2678ZM106.515 27.2678C106.515 25.216 105.573 24.005 103.989 24.005C102.405 24.005 101.464 25.2252 101.464 27.2678C101.464 29.3278 102.405 30.5296 103.989 30.5296C105.573 30.5296 106.515 29.3278 106.515 27.2678H106.515Z" fill="white"/>
<path d="M110.118 22.5142H111.983V24.1323H112.028C112.154 23.6269 112.451 23.1803 112.868 22.8675C113.285 22.5548 113.797 22.3949 114.318 22.4147C114.544 22.414 114.768 22.4384 114.988 22.4875V24.3127C114.704 24.226 114.407 24.1862 114.11 24.1948C113.826 24.1833 113.543 24.2333 113.28 24.3413C113.017 24.4494 112.781 24.6129 112.587 24.8207C112.394 25.0285 112.248 25.2756 112.159 25.5451C112.07 25.8146 112.041 26.1001 112.073 26.382V32.0206H110.118L110.118 22.5142Z" fill="white"/>
<path d="M124.001 29.2283C123.738 30.9541 122.054 32.1384 119.9 32.1384C117.13 32.1384 115.41 30.2855 115.41 27.3129C115.41 24.3311 117.139 22.3972 119.818 22.3972C122.453 22.3972 124.11 24.2039 124.11 27.0863V27.7549H117.384V27.8728C117.352 28.2226 117.396 28.5751 117.512 28.9067C117.628 29.2384 117.813 29.5416 118.056 29.7962C118.298 30.0509 118.592 30.2512 118.918 30.3838C119.243 30.5165 119.594 30.5784 119.945 30.5654C120.407 30.6086 120.871 30.5019 121.267 30.2609C121.663 30.02 121.971 29.6579 122.145 29.2283L124.001 29.2283ZM117.393 26.3911H122.154C122.171 26.0765 122.124 25.7617 122.014 25.4665C121.903 25.1712 121.733 24.9018 121.514 24.6753C121.295 24.4487 121.031 24.2699 120.739 24.1499C120.447 24.03 120.134 23.9716 119.818 23.9784C119.5 23.9765 119.184 24.0375 118.89 24.158C118.595 24.2785 118.327 24.456 118.102 24.6803C117.876 24.9046 117.698 25.1713 117.576 25.4649C117.454 25.7586 117.392 26.0733 117.393 26.3911V26.3911Z" fill="white"/>
<path d="M48.7324 9.16775C49.1422 9.1384 49.5534 9.2002 49.9364 9.3487C50.3194 9.49721 50.6646 9.72871 50.9471 10.0265C51.2296 10.3243 51.4424 10.681 51.5701 11.0708C51.6978 11.4607 51.7372 11.8739 51.6856 12.2808C51.6856 14.2824 50.6019 15.4329 48.7324 15.4329H46.4653V9.16775H48.7324ZM47.4401 14.5469H48.6235C48.9163 14.5644 49.2094 14.5164 49.4813 14.4066C49.7533 14.2967 49.9972 14.1277 50.1955 13.9119C50.3938 13.6961 50.5413 13.4388 50.6274 13.1589C50.7135 12.8789 50.736 12.5833 50.6933 12.2936C50.7329 12.005 50.7082 11.7113 50.6207 11.4334C50.5333 11.1555 50.3854 10.9003 50.1876 10.6862C49.9898 10.4721 49.7469 10.3043 49.4765 10.1948C49.2061 10.0854 48.9148 10.037 48.6235 10.0531H47.4401V14.5469Z" fill="white"/>
<path d="M52.7866 13.0672C52.7568 12.7565 52.7924 12.443 52.8911 12.1468C52.9898 11.8507 53.1494 11.5783 53.3597 11.3474C53.5701 11.1164 53.8264 10.9318 54.1124 10.8055C54.3983 10.6792 54.7075 10.614 55.0202 10.614C55.3329 10.614 55.6421 10.6792 55.9281 10.8055C56.214 10.9318 56.4704 11.1164 56.6807 11.3474C56.891 11.5783 57.0506 11.8507 57.1493 12.1468C57.248 12.443 57.2836 12.7565 57.2539 13.0672C57.2842 13.3782 57.249 13.6922 57.1506 13.9888C57.0521 14.2855 56.8926 14.5583 56.6822 14.7897C56.4719 15.0211 56.2153 15.2061 55.9291 15.3326C55.6429 15.4592 55.3333 15.5246 55.0202 15.5246C54.7072 15.5246 54.3976 15.4592 54.1113 15.3326C53.8251 15.2061 53.5686 15.0211 53.3582 14.7897C53.1478 14.5583 52.9883 14.2855 52.8899 13.9888C52.7914 13.6922 52.7562 13.3782 52.7866 13.0672ZM56.2924 13.0672C56.2924 12.0423 55.8312 11.443 55.0218 11.443C54.2092 11.443 53.7522 12.0423 53.7522 13.0672C53.7522 14.1003 54.2093 14.695 55.0218 14.695C55.8312 14.695 56.2924 14.0962 56.2924 13.0672H56.2924Z" fill="white"/>
<path d="M63.1922 15.4331H62.2225L61.2436 11.9509H61.1697L60.1948 15.4331H59.2344L57.9288 10.7051H58.8769L59.7254 14.3129H59.7953L60.769 10.7051H61.6658L62.6396 14.3129H62.7135L63.5579 10.7051H64.4926L63.1922 15.4331Z" fill="white"/>
<path d="M65.5908 10.7048H66.4906V11.4559H66.5604C66.6789 11.1861 66.8788 10.96 67.1322 10.809C67.3855 10.658 67.6798 10.5897 67.9739 10.6135C68.2043 10.5962 68.4357 10.6309 68.6509 10.715C68.8661 10.7991 69.0596 10.9305 69.2171 11.0994C69.3745 11.2683 69.4919 11.4703 69.5605 11.6907C69.6291 11.911 69.6471 12.1439 69.6133 12.3721V15.4328H68.6785V12.6064C68.6785 11.8466 68.3478 11.4687 67.6565 11.4687C67.5 11.4614 67.3438 11.488 67.1986 11.5467C67.0534 11.6053 66.9226 11.6945 66.8151 11.8084C66.7077 11.9222 66.6262 12.0578 66.5762 12.206C66.5262 12.3542 66.5089 12.5114 66.5255 12.6669V15.4329H65.5908L65.5908 10.7048Z" fill="white"/>
<path d="M71.1027 8.85938H72.0379V15.4331H71.1027V8.85938Z" fill="white"/>
<path d="M73.3367 13.0668C73.307 12.7561 73.3426 12.4426 73.4413 12.1464C73.54 11.8502 73.6997 11.5779 73.91 11.3469C74.1204 11.1159 74.3767 10.9313 74.6627 10.8051C74.9487 10.6788 75.2579 10.6135 75.5706 10.6135C75.8833 10.6135 76.1926 10.6788 76.4785 10.8051C76.7645 10.9313 77.0209 11.1159 77.2312 11.3469C77.4415 11.5779 77.6012 11.8502 77.6999 12.1464C77.7986 12.4426 77.8343 12.7561 77.8045 13.0668C77.8348 13.3778 77.7996 13.6918 77.7011 13.9884C77.6027 14.2851 77.4431 14.5579 77.2327 14.7893C77.0223 15.0207 76.7658 15.2057 76.4795 15.3322C76.1933 15.4588 75.8837 15.5242 75.5706 15.5242C75.2576 15.5242 74.9479 15.4588 74.6617 15.3322C74.3755 15.2057 74.1189 15.0207 73.9085 14.7893C73.6981 14.5579 73.5386 14.2851 73.4401 13.9884C73.3416 13.6918 73.3064 13.3778 73.3367 13.0668ZM76.8425 13.0668C76.8425 12.0419 76.3813 11.4426 75.5719 11.4426C74.7594 11.4426 74.3023 12.0419 74.3023 13.0668C74.3023 14.0999 74.7594 14.6946 75.5719 14.6946C76.3813 14.6946 76.8425 14.0958 76.8425 13.0668H76.8425Z" fill="white"/>
<path d="M78.7887 14.0962C78.7887 13.2451 79.4235 12.7545 80.5503 12.6848L81.8333 12.611V12.2028C81.8333 11.7035 81.5026 11.4215 80.8636 11.4215C80.3418 11.4215 79.9803 11.6127 79.8765 11.947H78.9715C79.0671 11.1349 79.8323 10.614 80.9068 10.614C82.0942 10.614 82.764 11.2041 82.764 12.2028V15.4333H81.8641V14.7689H81.7902C81.6401 15.0072 81.4293 15.2015 81.1793 15.3319C80.9294 15.4624 80.6492 15.5242 80.3675 15.5112C80.1687 15.5319 79.9677 15.5107 79.7776 15.4491C79.5874 15.3874 79.4123 15.2867 79.2636 15.1534C79.1148 15.0201 78.9957 14.8571 78.9139 14.675C78.8321 14.493 78.7895 14.2958 78.7887 14.0962ZM81.8333 13.6922V13.2969L80.6767 13.3708C80.0244 13.4143 79.7286 13.6358 79.7286 14.0526C79.7286 14.4782 80.0984 14.7258 80.6069 14.7258C80.7559 14.7409 80.9064 14.7258 81.0494 14.6816C81.1925 14.6375 81.3252 14.565 81.4396 14.4685C81.554 14.3721 81.6478 14.2537 81.7155 14.1203C81.7831 13.987 81.8232 13.8414 81.8333 13.6922Z" fill="white"/>
<path d="M83.9923 13.0671C83.9923 11.5731 84.7617 10.6266 85.9584 10.6266C86.2544 10.613 86.5482 10.6838 86.8054 10.8307C87.0626 10.9776 87.2726 11.1945 87.4108 11.4561H87.4807V8.85938H88.4154V15.4331H87.5197V14.6861H87.4458C87.2968 14.946 87.0795 15.1602 86.8173 15.3056C86.5551 15.451 86.2581 15.5221 85.9584 15.5111C84.7535 15.5111 83.9923 14.5646 83.9923 13.0671ZM84.9579 13.0671C84.9579 14.0699 85.4315 14.6733 86.2234 14.6733C87.0113 14.6733 87.4982 14.0612 87.4982 13.0712C87.4982 12.0858 87.0062 11.4649 86.2234 11.4649C85.4366 11.4649 84.9579 12.0724 84.9579 13.0671H84.9579Z" fill="white"/>
<path d="M92.283 13.0672C92.2533 12.7565 92.2889 12.443 92.3876 12.1468C92.4863 11.8507 92.6459 11.5783 92.8562 11.3474C93.0665 11.1164 93.3229 10.9318 93.6088 10.8055C93.8947 10.6792 94.204 10.614 94.5167 10.614C94.8294 10.614 95.1386 10.6792 95.4245 10.8055C95.7105 10.9318 95.9668 11.1164 96.1771 11.3474C96.3874 11.5783 96.5471 11.8507 96.6458 12.1468C96.7445 12.443 96.7801 12.7565 96.7503 13.0672C96.7807 13.3782 96.7455 13.6922 96.647 13.9888C96.5486 14.2855 96.389 14.5583 96.1787 14.7897C95.9683 15.0211 95.7118 15.2061 95.4255 15.3326C95.1393 15.4592 94.8297 15.5246 94.5167 15.5246C94.2036 15.5246 93.894 15.4592 93.6078 15.3326C93.3216 15.2061 93.065 15.0211 92.8546 14.7897C92.6443 14.5583 92.4848 14.2855 92.3863 13.9888C92.2879 13.6922 92.2527 13.3782 92.283 13.0672ZM95.7888 13.0672C95.7888 12.0423 95.3276 11.443 94.5182 11.443C93.7057 11.443 93.2486 12.0423 93.2486 13.0672C93.2486 14.1003 93.7057 14.695 94.5182 14.695C95.3276 14.695 95.7888 14.0962 95.7888 13.0672Z" fill="white"/>
<path d="M98.0044 10.7048H98.9042V11.4559H98.9741C99.0926 11.1861 99.2924 10.96 99.5458 10.809C99.7991 10.658 100.093 10.5897 100.388 10.6135C100.618 10.5962 100.849 10.6309 101.065 10.715C101.28 10.7991 101.473 10.9305 101.631 11.0994C101.788 11.2683 101.906 11.4703 101.974 11.6907C102.043 11.911 102.061 12.1439 102.027 12.3721V15.4328H101.092V12.6064C101.092 11.8466 100.761 11.4687 100.07 11.4687C99.9136 11.4614 99.7574 11.488 99.6122 11.5467C99.467 11.6053 99.3362 11.6945 99.2288 11.8084C99.1214 11.9222 99.0399 12.0578 98.9899 12.206C98.9399 12.3542 98.9226 12.5114 98.9391 12.6669V15.4329H98.0044V10.7048Z" fill="white"/>
<path d="M107.309 9.52832V10.727H108.335V11.513H107.309V13.9442C107.309 14.4394 107.513 14.6563 107.978 14.6563C108.098 14.6559 108.217 14.6487 108.335 14.6347V15.412C108.167 15.442 107.997 15.4579 107.826 15.4597C106.787 15.4597 106.373 15.0946 106.373 14.1831V11.5129H105.621V10.727H106.373V9.52832H107.309Z" fill="white"/>
<path d="M109.612 8.85938H110.538V11.4649H110.612C110.736 11.1926 110.942 10.9652 111.2 10.8136C111.459 10.6621 111.758 10.5937 112.056 10.6179C112.286 10.6055 112.515 10.6437 112.728 10.7298C112.94 10.816 113.131 10.9479 113.287 11.1163C113.443 11.2846 113.56 11.4852 113.629 11.7038C113.698 11.9223 113.718 12.1534 113.688 12.3806V15.4331H112.752V12.6107C112.752 11.8556 112.4 11.4731 111.739 11.4731C111.578 11.4599 111.417 11.482 111.266 11.5377C111.114 11.5934 110.977 11.6814 110.864 11.7956C110.75 11.9098 110.663 12.0473 110.608 12.1987C110.553 12.35 110.532 12.5115 110.546 12.6718V15.4331H109.612L109.612 8.85938Z" fill="white"/>
<path d="M119.138 14.1563C119.011 14.5884 118.736 14.9622 118.361 15.2123C117.985 15.4623 117.534 15.5727 117.086 15.5242C116.774 15.5324 116.463 15.4727 116.177 15.3493C115.89 15.2259 115.634 15.0417 115.426 14.8095C115.218 14.5774 115.063 14.3027 114.971 14.0047C114.88 13.7067 114.855 13.3924 114.898 13.0838C114.856 12.7741 114.882 12.4592 114.973 12.1603C115.064 11.8614 115.218 11.5855 115.425 11.3513C115.632 11.117 115.887 10.93 116.173 10.8027C116.459 10.6754 116.769 10.6109 117.082 10.6136C118.399 10.6136 119.194 11.5124 119.194 12.9971V13.3227H115.85V13.375C115.835 13.5485 115.857 13.7231 115.914 13.8877C115.971 14.0523 116.062 14.2032 116.18 14.3307C116.299 14.4583 116.443 14.5596 116.604 14.6283C116.764 14.6969 116.937 14.7314 117.111 14.7295C117.335 14.7563 117.561 14.7161 117.762 14.614C117.963 14.5119 118.128 14.3526 118.238 14.1563L119.138 14.1563ZM115.85 12.6326H118.242C118.254 12.4739 118.232 12.3145 118.179 12.1647C118.125 12.0148 118.041 11.8778 117.931 11.7625C117.821 11.6471 117.688 11.556 117.541 11.4949C117.394 11.4338 117.236 11.4041 117.076 11.4078C116.915 11.4057 116.754 11.436 116.604 11.4969C116.455 11.5577 116.319 11.6479 116.204 11.762C116.09 11.8762 116 12.012 115.939 12.1615C115.878 12.311 115.848 12.4712 115.85 12.6326H115.85Z" fill="white"/>
</svg>
