<svg width="143" height="42" viewBox="0 0 143 42" fill="none" xmlns="http://www.w3.org/2000/svg">
<path d="M137.241 0H5.75926C2.85465 0 0.5 2.3505 0.5 5.24998V36.7499C0.5 39.6494 2.85465 41.9999 5.75926 41.9999H137.241C140.145 41.9999 142.5 39.6494 142.5 36.7499V5.24998C142.5 2.3505 140.145 0 137.241 0Z" fill="#1F1F1F"/>
<path d="M137.241 0.839787C138.412 0.841138 139.535 1.30623 140.363 2.13301C141.191 2.9598 141.657 4.08077 141.658 5.24998V36.7499C141.657 37.9191 141.191 39.0401 140.363 39.8668C139.535 40.6936 138.412 41.1587 137.241 41.1601H5.75926C4.58797 41.1587 3.46504 40.6937 2.63684 39.8669C1.80863 39.0401 1.34278 37.9191 1.34148 36.7499V5.24998C1.34276 4.08075 1.8086 2.95977 2.63681 2.13298C3.46503 1.30619 4.58796 0.841116 5.75926 0.839787H137.241ZM137.241 0H5.75926C4.36567 0.00407199 3.03033 0.558501 2.04491 1.54218C1.05949 2.52586 0.504079 3.85885 0.5 5.24998L0.5 36.7499C0.504079 38.141 1.05949 39.474 2.04491 40.4577C3.03033 41.4414 4.36567 41.9958 5.75926 41.9999H137.241C138.634 41.9958 139.97 41.4414 140.955 40.4577C141.941 39.474 142.496 38.141 142.5 36.7499V5.24998C142.496 3.85885 141.941 2.52586 140.955 1.54218C139.97 0.558501 138.634 0.00407199 137.241 0Z" fill="#A1A4B2"/>
<path d="M50.3773 10.7557C50.3964 11.141 50.3368 11.5261 50.202 11.8877C50.0673 12.2492 49.8602 12.5796 49.5935 12.8588C49.2945 13.1683 48.9335 13.4113 48.534 13.5719C48.1345 13.7325 47.7055 13.8071 47.2751 13.7908C46.842 13.7947 46.4124 13.7121 46.0117 13.5479C45.611 13.3837 45.2473 13.1412 44.9418 12.8346C44.6363 12.5281 44.3953 12.1636 44.233 11.7628C44.0706 11.3619 43.9902 10.9327 43.9964 10.5004C43.9902 10.068 44.0707 9.63878 44.2331 9.23791C44.3954 8.83704 44.6364 8.47261 44.9419 8.16602C45.2473 7.85943 45.6111 7.61686 46.0117 7.45258C46.4124 7.28829 46.8419 7.2056 47.2751 7.20935C47.7204 7.20801 48.1613 7.29789 48.5704 7.47343C48.9504 7.62719 49.2887 7.86838 49.5576 8.17734L49.0029 8.73153C48.7915 8.48316 48.5257 8.28658 48.2262 8.15698C47.9266 8.02737 47.6012 7.96821 47.2751 7.98404C46.9468 7.98234 46.6216 8.0468 46.3189 8.17355C46.0162 8.30029 45.7422 8.48672 45.5134 8.72167C45.2845 8.95662 45.1055 9.23525 44.9871 9.54088C44.8687 9.84651 44.8133 10.1728 44.8243 10.5004C44.8164 10.9909 44.9547 11.4727 45.2216 11.8847C45.4884 12.2967 45.8718 12.6204 46.3232 12.8146C46.7745 13.0087 47.2735 13.0648 47.7568 12.9755C48.24 12.8863 48.6859 12.6558 49.0378 12.3133C49.3616 11.9649 49.5494 11.512 49.5668 11.0371H47.2751V10.2804H50.3331C50.3621 10.4372 50.3768 10.5963 50.3773 10.7557Z" fill="white" stroke="white" stroke-width="0.2" stroke-miterlimit="10"/>
<path d="M55.2252 8.12377H52.3512V10.1212H54.9428V10.878H52.3512V12.8754H55.2252V13.6496H51.5407V7.34961H55.2252V8.12377Z" fill="white" stroke="white" stroke-width="0.2" stroke-miterlimit="10"/>
<path d="M58.6448 13.6496H57.8333V8.12377H56.0706V7.34961H60.4075V8.12377H58.6448V13.6496Z" fill="white" stroke="white" stroke-width="0.2" stroke-miterlimit="10"/>
<path d="M63.5459 13.6496V7.34961H64.3568V13.6496H63.5459Z" fill="white" stroke="white" stroke-width="0.2" stroke-miterlimit="10"/>
<path d="M67.9535 13.6496H67.142V8.12377H65.3794V7.34961H69.7162V8.12377H67.9535V13.6496Z" fill="white" stroke="white" stroke-width="0.2" stroke-miterlimit="10"/>
<path d="M77.9262 12.8361C77.3119 13.4474 76.4799 13.7907 75.6124 13.7907C74.745 13.7907 73.913 13.4474 73.2987 12.8361C72.9948 12.5288 72.7559 12.1637 72.5962 11.7624C72.4365 11.3611 72.3592 10.9319 72.3691 10.5002C72.3592 10.0686 72.4365 9.63933 72.5962 9.23806C72.7559 8.83679 72.9948 8.47167 73.2987 8.16441C73.6023 7.86124 73.9628 7.62082 74.3597 7.45692C74.7565 7.29302 75.1818 7.20885 75.6112 7.20923C76.0407 7.20961 76.4658 7.29453 76.8624 7.45914C77.2589 7.62374 77.619 7.8648 77.9221 8.16851C78.2262 8.47495 78.4656 8.83926 78.626 9.2398C78.7863 9.64034 78.8645 10.069 78.8558 10.5002C78.8654 10.9319 78.788 11.361 78.6283 11.7623C78.4686 12.1635 78.2299 12.5286 77.9262 12.8361ZM73.8975 12.3085C74.3525 12.7619 74.9691 13.0166 75.6119 13.0166C76.2548 13.0166 76.8714 12.7619 77.3263 12.3085C77.5596 12.0701 77.7421 11.7869 77.8627 11.4761C77.9833 11.1653 78.0395 10.8333 78.0279 10.5002C78.0395 10.1671 77.9833 9.83515 77.8627 9.52434C77.7421 9.21354 77.5596 8.93036 77.3263 8.69193C76.8714 8.23855 76.2548 7.9839 75.6119 7.9839C74.9691 7.9839 74.3525 8.23855 73.8975 8.69193C73.6645 8.93055 73.4824 9.21378 73.362 9.52456C73.2416 9.83534 73.1854 10.1672 73.197 10.5002C73.1854 10.8332 73.2416 11.1651 73.362 11.4759C73.4824 11.7867 73.6645 12.0699 73.8975 12.3085Z" fill="white" stroke="white" stroke-width="0.2" stroke-miterlimit="10"/>
<path d="M79.9939 13.6496V7.34961H80.9811L84.0483 12.2505H84.0832L84.0483 11.0364V7.34961H84.8598V13.6496H84.0133L80.8043 8.51133H80.7694L80.8043 9.72544V13.6496H79.9939Z" fill="white" stroke="white" stroke-width="0.2" stroke-miterlimit="10"/>
<path d="M72.1689 22.8395C71.2848 22.8428 70.4216 23.1076 69.6881 23.6003C68.9546 24.0931 68.3839 24.7917 68.0479 25.608C67.7119 26.4243 67.6257 27.3217 67.8002 28.1869C67.9747 29.0521 68.4022 29.8462 69.0285 30.4691C69.6548 31.0919 70.452 31.5156 71.3194 31.6865C72.1867 31.8575 73.0854 31.768 73.9018 31.4295C74.7183 31.091 75.416 30.5186 75.9068 29.7846C76.3977 29.0505 76.6596 28.1878 76.6596 27.3052C76.6683 26.7149 76.5579 26.1289 76.3351 25.5821C76.1123 25.0352 75.7816 24.5387 75.3626 24.1221C74.9436 23.7054 74.445 23.3772 73.8963 23.1568C73.3477 22.9365 72.7602 22.8286 72.1689 22.8395ZM72.1689 30.0118C71.6245 30.0506 71.0809 29.9248 70.6091 29.6508C70.1372 29.3769 69.7589 28.9675 69.5234 28.476C69.2879 27.9844 69.2061 27.4334 69.2887 26.8948C69.3713 26.3562 69.6144 25.8549 69.9864 25.4561C70.3584 25.0574 70.842 24.7796 71.3743 24.6591C71.9066 24.5386 72.463 24.5808 72.9709 24.7803C73.4789 24.9799 73.9149 25.3274 74.2221 25.7777C74.5294 26.2281 74.6938 26.7603 74.6938 27.3052C74.7103 27.6495 74.6577 27.9935 74.539 28.3171C74.4203 28.6407 74.2379 28.9374 74.0027 29.1896C73.7674 29.4418 73.484 29.6445 73.169 29.7857C72.8541 29.9269 72.5141 30.0038 72.1689 30.0118ZM62.3726 22.8395C61.4885 22.8428 60.6252 23.1075 59.8918 23.6003C59.1583 24.093 58.5875 24.7916 58.2515 25.608C57.9154 26.4243 57.8293 27.3217 58.0038 28.1868C58.1783 29.052 58.6057 29.8462 59.2321 30.4691C59.8584 31.0919 60.6556 31.5156 61.5229 31.6865C62.3903 31.8575 63.2889 31.768 64.1054 31.4295C64.9219 31.091 65.6196 30.5186 66.1104 29.7846C66.6012 29.0505 66.8632 28.1878 66.8632 27.3052C66.8719 26.7149 66.7615 26.129 66.5387 25.5821C66.3159 25.0353 65.9852 24.5388 65.5662 24.1221C65.1473 23.7055 64.6486 23.3772 64.1 23.1569C63.5513 22.9365 62.9639 22.8286 62.3726 22.8395ZM62.3726 30.0118C61.8281 30.0506 61.2846 29.9248 60.8128 29.6508C60.3409 29.3769 59.9626 28.9675 59.7271 28.476C59.4916 27.9844 59.4098 27.4334 59.4924 26.8948C59.575 26.3562 59.8181 25.8549 60.1901 25.4561C60.562 25.0574 61.0457 24.7796 61.578 24.6591C62.1103 24.5386 62.6667 24.5808 63.1746 24.7803C63.6825 24.9799 64.1185 25.3274 64.4258 25.7777C64.7331 26.2281 64.8975 26.7603 64.8975 27.3052C64.914 27.6495 64.8614 27.9935 64.7427 28.3171C64.624 28.6408 64.4417 28.9374 64.2064 29.1896C63.9711 29.4418 63.6877 29.6445 63.3727 29.7857C63.0578 29.9269 62.7178 30.0038 62.3726 30.0118ZM50.7194 24.2097V26.1042H55.2609C55.1954 26.9929 54.8311 27.8333 54.2272 28.4894C53.7721 28.9525 53.2247 29.3152 52.6206 29.5541C52.0164 29.793 51.3687 29.9028 50.7194 29.8765C49.3919 29.8585 48.1249 29.3195 47.1925 28.3761C46.2602 27.4327 45.7374 26.1608 45.7374 24.8355C45.7374 23.5103 46.2602 22.2383 47.1925 21.2949C48.1249 20.3515 49.3919 19.8125 50.7194 19.7946C51.9944 19.778 53.2246 20.2643 54.1425 21.1478L55.4812 19.8115C54.8549 19.1925 54.1111 18.7046 53.2934 18.3764C52.4757 18.0482 51.6006 17.8862 50.7194 17.9C49.7984 17.8866 48.8841 18.0561 48.0294 18.3986C47.1747 18.7412 46.3967 19.2499 45.7407 19.8953C45.0848 20.5406 44.5639 21.3097 44.2083 22.1578C43.8528 23.0059 43.6697 23.9161 43.6697 24.8355C43.6697 25.7549 43.8528 26.6651 44.2083 27.5132C44.5639 28.3613 45.0848 29.1304 45.7407 29.7758C46.3967 30.4211 47.1747 30.9299 48.0294 31.2724C48.8841 31.6149 49.7984 31.7845 50.7194 31.7711C51.6192 31.8083 52.5166 31.6541 53.3522 31.3187C54.1878 30.9834 54.9424 30.4744 55.5659 29.8257C56.6728 28.6196 57.2629 27.0288 57.2097 25.3938C57.214 24.9968 57.1799 24.6002 57.1079 24.2097H50.7194ZM98.377 25.6813C98.1081 24.8724 97.5963 24.1658 96.9111 23.6573C96.226 23.1489 95.4006 22.8634 94.5472 22.8395C93.9724 22.843 93.4043 22.9629 92.8772 23.1919C92.3501 23.4208 91.875 23.7541 91.4806 24.1715C91.0862 24.5889 90.7807 25.0818 90.5826 25.6204C90.3844 26.1591 90.2977 26.7322 90.3278 27.3052C90.3148 27.8924 90.4206 28.4761 90.6387 29.0215C90.8568 29.5669 91.1828 30.0629 91.5972 30.4798C92.0116 30.8966 92.5059 31.2258 93.0506 31.4477C93.5953 31.6695 94.1793 31.7795 94.7675 31.7711C95.5045 31.7751 96.231 31.5964 96.8817 31.251C97.5323 30.9055 98.0869 30.4042 98.4955 29.7919L96.9704 28.777C96.742 29.1558 96.4188 29.4687 96.0326 29.6852C95.6464 29.9017 95.2104 30.0142 94.7675 30.0118C94.3118 30.0292 93.8613 29.9095 93.4745 29.6682C93.0877 29.4269 92.7825 29.0751 92.5984 28.6586L98.5804 26.1889L98.377 25.6813ZM92.2765 27.17C92.2555 26.8449 92.2996 26.519 92.4062 26.2112C92.5129 25.9033 92.68 25.6199 92.8977 25.3773C93.1154 25.1347 93.3795 24.9379 93.6743 24.7984C93.9692 24.6589 94.289 24.5796 94.6149 24.5649C94.9543 24.5427 95.2928 24.6206 95.5881 24.7891C95.8835 24.9575 96.1226 25.209 96.2757 25.5122L92.2765 27.17ZM87.413 31.5004H89.3787V18.3737H87.413V31.5004ZM84.1933 23.8375H84.1255C83.8267 23.5134 83.462 23.2567 83.0557 23.0846C82.6495 22.9125 82.2112 22.8289 81.77 22.8395C80.6165 22.8885 79.5264 23.3804 78.7276 24.2125C77.9287 25.0447 77.4827 26.1527 77.4827 27.3053C77.4827 28.4578 77.9287 29.5659 78.7276 30.398C79.5264 31.2301 80.6165 31.7221 81.77 31.7711C82.2129 31.7828 82.6531 31.6981 83.0599 31.5229C83.4667 31.3476 83.8303 31.0859 84.1255 30.7561H84.1933V31.399C84.1933 33.1075 83.2783 34.0209 81.8039 34.0209C81.3125 34.0092 80.8358 33.8517 80.4344 33.5685C80.0331 33.2853 79.7252 32.8892 79.5502 32.4308L77.8386 33.1413C78.1612 33.9253 78.7109 34.5953 79.4174 35.0655C80.1239 35.5356 80.9548 35.7845 81.8039 35.7802C84.1086 35.7802 86.0574 34.4269 86.0574 31.1283V23.1101H84.1933V23.8375ZM81.9396 30.0118C81.2601 29.9543 80.6271 29.6442 80.1658 29.143C79.7044 28.6418 79.4484 27.9859 79.4484 27.3053C79.4484 26.6246 79.7044 25.9688 80.1658 25.4675C80.6271 24.9663 81.2601 24.6563 81.9396 24.5988C82.2776 24.6152 82.6088 24.6995 82.9135 24.8465C83.2183 24.9934 83.4902 25.2002 83.7132 25.4543C83.9361 25.7085 84.1055 26.0048 84.2113 26.3257C84.3171 26.6466 84.3571 26.9855 84.3289 27.3221C84.3553 27.6567 84.3139 27.9931 84.207 28.3113C84.1002 28.6295 83.9302 28.923 83.7071 29.1741C83.484 29.4252 83.2125 29.6288 82.9088 29.7727C82.6051 29.9167 82.2755 29.998 81.9396 30.0118ZM107.585 18.374H102.882V31.5004H104.844V26.5272H107.585C108.14 26.5576 108.695 26.4746 109.217 26.2835C109.739 26.0923 110.217 25.797 110.62 25.4155C111.024 25.0339 111.346 24.5742 111.565 24.0645C111.785 23.5547 111.899 23.0055 111.899 22.4506C111.899 21.8956 111.785 21.3464 111.565 20.8367C111.346 20.3269 111.024 19.8672 110.62 19.4857C110.217 19.1041 109.739 18.8088 109.217 18.6176C108.695 18.4265 108.14 18.3436 107.585 18.374ZM107.635 24.7004H104.844V20.2008H107.635C107.935 20.1946 108.233 20.2482 108.512 20.3585C108.791 20.4688 109.045 20.6335 109.26 20.843C109.474 21.0526 109.644 21.3027 109.76 21.5787C109.877 21.8548 109.936 22.1512 109.936 22.4506C109.936 22.75 109.877 23.0465 109.76 23.3225C109.644 23.5986 109.474 23.8487 109.26 24.0582C109.045 24.2677 108.791 24.4324 108.512 24.5427C108.233 24.653 107.935 24.7066 107.635 24.7004ZM119.765 22.8153C119.049 22.7736 118.336 22.9415 117.714 23.2985C117.092 23.6555 116.588 24.186 116.263 24.8249L118.006 25.5511C118.178 25.234 118.44 24.974 118.759 24.803C119.077 24.6321 119.439 24.5575 119.799 24.5885C120.297 24.5399 120.794 24.6905 121.18 25.007C121.567 25.3236 121.813 25.7803 121.863 26.2772V26.4123C121.233 26.0781 120.529 25.9041 119.816 25.9057C117.938 25.9057 116.026 26.9358 116.026 28.861C116.045 29.2667 116.144 29.6647 116.32 30.0312C116.495 30.3977 116.742 30.7254 117.047 30.9947C117.351 31.264 117.707 31.4696 118.092 31.5991C118.478 31.7286 118.886 31.7795 119.291 31.7487C119.786 31.7777 120.278 31.674 120.719 31.4483C121.159 31.2226 121.531 30.8831 121.795 30.4653H121.863V31.4785H123.758V26.4461C123.758 24.1156 122.015 22.8153 119.765 22.8153ZM119.528 30.0093C118.885 30.0093 117.989 29.6885 117.989 28.8947C117.989 27.8816 119.105 27.4931 120.07 27.4931C120.696 27.4764 121.315 27.6281 121.863 27.9322C121.791 28.5015 121.515 29.0256 121.085 29.4074C120.656 29.7892 120.103 30.003 119.528 30.0093ZM130.66 23.1024L128.41 28.7934H128.342L126.008 23.1024H123.893L127.395 31.0563L125.399 35.4808H127.445L132.842 23.1024H130.66ZM112.981 31.5004H114.944V18.374H112.981V31.5004Z" fill="white"/>
<path d="M11.4765 7.91534C11.1315 8.32702 10.9574 8.85477 10.9897 9.39048V32.6123C10.9573 33.148 11.1315 33.6758 11.4765 34.0875L11.5543 34.1632L24.5857 21.1549V20.8479L11.5543 7.83911L11.4765 7.91534Z" fill="url(#paint0_linear_565_663)"/>
<path d="M28.9292 25.493L24.5857 21.155V20.8481L28.9303 16.5112L29.0282 16.567L34.1747 19.4861C35.6448 20.3198 35.6448 21.6839 34.1747 22.5182L29.0282 25.4373L28.9292 25.493Z" fill="url(#paint1_linear_565_663)"/>
<path d="M29.0281 25.4363L24.5856 21.0012L11.4764 34.0872C11.7759 34.3509 12.1584 34.5017 12.5576 34.5135C12.9569 34.5253 13.3476 34.3973 13.6622 34.1517L29.0281 25.4363Z" fill="url(#paint2_linear_565_663)"/>
<path d="M29.0281 16.566L13.6622 7.85061C13.3476 7.60501 12.9569 7.47701 12.5576 7.48878C12.1584 7.50056 11.7759 7.65137 11.4764 7.91508L24.5856 21.0012L29.0281 16.566Z" fill="url(#paint3_linear_565_663)"/>
<path opacity="0.2" d="M28.9302 25.3386L13.6622 33.9983C13.3597 34.2281 12.9905 34.3536 12.6104 34.3556C12.2302 34.3576 11.8597 34.2361 11.5547 34.0095L11.4764 34.0877L11.5542 34.1634L11.5547 34.1629C11.8596 34.3897 12.2302 34.5112 12.6104 34.5092C12.9906 34.5072 13.3598 34.3817 13.6622 34.1517L29.0281 25.4363L28.9302 25.3386Z" fill="#1F1F1F"/>
<path opacity="0.12" d="M11.4774 33.9344C11.1318 33.5227 10.9573 32.9949 10.9896 32.4592V32.6126C10.9573 33.1483 11.1318 33.6761 11.4774 34.0878L11.5559 34.0095L11.4774 33.9344Z" fill="#1F1F1F"/>
<path opacity="0.12" d="M34.1744 22.3641L28.9299 25.339L29.0279 25.4366L34.1744 22.5175C34.4771 22.3864 34.7391 22.1766 34.933 21.91C35.1269 21.6435 35.2457 21.3299 35.277 21.002C35.2119 21.2989 35.0784 21.5767 34.887 21.8132C34.6956 22.0496 34.4516 22.2383 34.1744 22.3641Z" fill="#1F1F1F"/>
<path opacity="0.25" d="M13.6621 8.0049L34.1745 19.6389C34.4518 19.7647 34.6959 19.9534 34.8873 20.19C35.0787 20.4265 35.2122 20.7044 35.2771 21.0015C35.246 20.6735 35.1273 20.3597 34.9334 20.093C34.7394 19.8264 34.4773 19.6165 34.1745 19.4855L13.6621 7.85149C12.192 7.01769 10.9894 7.71027 10.9894 9.3911V9.54451C10.9894 7.86378 12.192 7.1712 13.6621 8.0049Z" fill="white"/>
<defs>
<linearGradient id="paint0_linear_565_663" x1="23.4301" y1="9.14563" x2="5.80861" y2="26.7982" gradientUnits="userSpaceOnUse">
<stop stop-color="#00A0FF"/>
<stop offset="0.00657" stop-color="#00A1FF"/>
<stop offset="0.2601" stop-color="#00BEFF"/>
<stop offset="0.5122" stop-color="#00D2FF"/>
<stop offset="0.7604" stop-color="#00DFFF"/>
<stop offset="1" stop-color="#00E3FF"/>
</linearGradient>
<linearGradient id="paint1_linear_565_663" x1="36.0887" y1="21.0021" x2="10.6372" y2="21.0021" gradientUnits="userSpaceOnUse">
<stop stop-color="#FFE000"/>
<stop offset="0.4087" stop-color="#FFBD00"/>
<stop offset="0.7754" stop-color="#FFA500"/>
<stop offset="1" stop-color="#FF9C00"/>
</linearGradient>
<linearGradient id="paint2_linear_565_663" x1="26.6141" y1="23.4111" x2="2.71807" y2="47.3494" gradientUnits="userSpaceOnUse">
<stop stop-color="#FF3A44"/>
<stop offset="1" stop-color="#C31162"/>
</linearGradient>
<linearGradient id="paint3_linear_565_663" x1="8.1756" y1="0.185196" x2="18.8462" y2="10.8746" gradientUnits="userSpaceOnUse">
<stop stop-color="#32A071"/>
<stop offset="0.0685" stop-color="#2DA771"/>
<stop offset="0.4762" stop-color="#15CF74"/>
<stop offset="0.8009" stop-color="#06E775"/>
<stop offset="1" stop-color="#00F076"/>
</linearGradient>
</defs>
</svg>
