<svg width="1166" height="360" viewBox="0 0 1166 360" fill="none" xmlns="http://www.w3.org/2000/svg">
<g filter="url(#filter0_d_5_31)">
<circle cx="180" cy="176" r="150" fill="white"/>
<circle cx="179.7" cy="175.7" r="133.5" fill="url(#paint0_linear_5_31)"/>
<path d="M273.547 172.225C278.827 182.785 277.447 196.725 275.947 202.825C255.067 141.385 184.847 127.225 152.347 127.825C83.0472 133.525 102.422 161.063 113.347 174.625C122.047 185.425 174.547 216.325 198.547 226.825C167.587 222.265 137.947 208.525 126.547 202.225C104.347 188.225 65.2872 154.345 90.2472 130.825C115.207 107.305 164.047 109.825 185.347 114.025C191.647 115.125 207.427 118.705 220.147 124.225C232.867 129.745 245.647 139.725 250.447 144.025C255.947 149.025 268.267 161.665 273.547 172.225Z" fill="#55B7FD"/>
<path d="M203.342 82.4383C214.321 78.0957 228.089 80.6817 234.035 82.706C171.013 98.169 150.806 166.893 148.58 199.322C148.238 268.856 177.355 251.947 191.815 242.241C203.33 234.512 238.674 184.895 251.22 161.898C243.987 192.345 227.724 220.679 220.457 231.489C204.582 252.389 167.436 288.357 146.174 261.448C124.911 234.539 131.665 186.103 137.699 165.248C139.343 159.068 144.28 143.658 150.884 131.466C157.489 119.274 168.541 107.409 173.242 103.001C178.701 97.9561 192.364 86.7809 203.342 82.4383Z" fill="white"/>
<path d="M203.342 82.4383C214.321 78.0957 228.089 80.6817 234.035 82.706C171.013 98.169 150.806 166.893 148.58 199.322C148.238 268.856 177.355 251.947 191.815 242.241C203.33 234.512 238.674 184.895 251.22 161.898C243.987 192.345 227.724 220.679 220.457 231.489C204.582 252.389 167.436 288.357 146.174 261.448C124.911 234.539 131.665 186.103 137.699 165.248C139.343 159.068 144.28 143.658 150.884 131.466C157.489 119.274 168.541 107.409 173.242 103.001C178.701 97.9561 192.364 86.7809 203.342 82.4383Z" fill="url(#paint1_linear_5_31)"/>
<path d="M192.3 115.477C179.58 111.397 163.4 110.977 156.9 111.277C150.6 117.777 137.902 129.578 144.6 128.677C160.2 126.577 174 129.177 183.9 130.777C192 127.377 205.02 119.557 192.3 115.477Z" fill="#55B7FD"/>
</g>
<path d="M515.58 151.36C515.58 157.053 514.273 162.28 511.66 167.04C509.047 171.707 505.033 175.487 499.62 178.38C494.207 181.273 487.487 182.72 479.46 182.72H464.62V218H440.68V119.72H479.46C487.3 119.72 493.927 121.073 499.34 123.78C504.753 126.487 508.813 130.22 511.52 134.98C514.227 139.74 515.58 145.2 515.58 151.36ZM477.64 163.68C482.213 163.68 485.62 162.607 487.86 160.46C490.1 158.313 491.22 155.28 491.22 151.36C491.22 147.44 490.1 144.407 487.86 142.26C485.62 140.113 482.213 139.04 477.64 139.04H464.62V163.68H477.64ZM553.383 119.72V218H529.443V119.72H553.383ZM568.072 168.72C568.072 159.013 570.172 150.38 574.372 142.82C578.572 135.167 584.406 129.24 591.872 125.04C599.432 120.747 607.972 118.6 617.492 118.6C629.159 118.6 639.146 121.68 647.452 127.84C655.759 134 661.312 142.4 664.112 153.04H637.792C635.832 148.933 633.032 145.807 629.392 143.66C625.846 141.513 621.786 140.44 617.212 140.44C609.839 140.44 603.866 143.007 599.292 148.14C594.719 153.273 592.432 160.133 592.432 168.72C592.432 177.307 594.719 184.167 599.292 189.3C603.866 194.433 609.839 197 617.212 197C621.786 197 625.846 195.927 629.392 193.78C633.032 191.633 635.832 188.507 637.792 184.4H664.112C661.312 195.04 655.759 203.44 647.452 209.6C639.146 215.667 629.159 218.7 617.492 218.7C607.972 218.7 599.432 216.6 591.872 212.4C584.406 208.107 578.572 202.18 574.372 194.62C570.172 187.06 568.072 178.427 568.072 168.72ZM737.153 218L704.113 174.6V218H680.173V119.72H704.113V162.84L736.873 119.72H765.013L726.933 167.88L766.413 218H737.153ZM890.49 119.72V218H866.55V159.06L844.57 218H825.25L803.13 158.92V218H779.19V119.72H807.47L835.05 187.76L862.35 119.72H890.49ZM933.046 138.9V158.78H965.106V177.26H933.046V198.82H969.306V218H909.106V119.72H969.306V138.9H933.046ZM1009.77 119.72V178.52C1009.77 184.4 1011.21 188.927 1014.11 192.1C1017 195.273 1021.25 196.86 1026.85 196.86C1032.45 196.86 1036.74 195.273 1039.73 192.1C1042.71 188.927 1044.21 184.4 1044.21 178.52V119.72H1068.15V178.38C1068.15 187.153 1066.28 194.573 1062.55 200.64C1058.81 206.707 1053.77 211.28 1047.43 214.36C1041.17 217.44 1034.17 218.98 1026.43 218.98C1018.68 218.98 1011.73 217.487 1005.57 214.5C999.501 211.42 994.695 206.847 991.148 200.78C987.601 194.62 985.828 187.153 985.828 178.38V119.72H1009.77ZM1161.26 151.36C1161.26 157.053 1159.95 162.28 1157.34 167.04C1154.73 171.707 1150.71 175.487 1145.3 178.38C1139.89 181.273 1133.17 182.72 1125.14 182.72H1110.3V218H1086.36V119.72H1125.14C1132.98 119.72 1139.61 121.073 1145.02 123.78C1150.43 126.487 1154.49 130.22 1157.2 134.98C1159.91 139.74 1161.26 145.2 1161.26 151.36ZM1123.32 163.68C1127.89 163.68 1131.3 162.607 1133.54 160.46C1135.78 158.313 1136.9 155.28 1136.9 151.36C1136.9 147.44 1135.78 144.407 1133.54 142.26C1131.3 140.113 1127.89 139.04 1123.32 139.04H1110.3V163.68H1123.32Z" fill="white"/>
<defs>
<filter id="filter0_d_5_31" x="0" y="0" width="360" height="360" filterUnits="userSpaceOnUse" color-interpolation-filters="sRGB">
<feFlood flood-opacity="0" result="BackgroundImageFix"/>
<feColorMatrix in="SourceAlpha" type="matrix" values="0 0 0 0 0 0 0 0 0 0 0 0 0 0 0 0 0 0 127 0" result="hardAlpha"/>
<feOffset dy="4"/>
<feGaussianBlur stdDeviation="15"/>
<feComposite in2="hardAlpha" operator="out"/>
<feColorMatrix type="matrix" values="0 0 0 0 0 0 0 0 0 0 0 0 0 0 0 0 0 0 0.25 0"/>
<feBlend mode="normal" in2="BackgroundImageFix" result="effect1_dropShadow_5_31"/>
<feBlend mode="normal" in="SourceGraphic" in2="effect1_dropShadow_5_31" result="shape"/>
</filter>
<linearGradient id="paint0_linear_5_31" x1="179.7" y1="42.2" x2="179.7" y2="309.2" gradientUnits="userSpaceOnUse">
<stop stop-color="#0404A9"/>
<stop offset="1" stop-color="#001C50"/>
<stop offset="1" stop-color="#001C50"/>
</linearGradient>
<linearGradient id="paint1_linear_5_31" x1="226.206" y1="78.8727" x2="217.617" y2="177.522" gradientUnits="userSpaceOnUse">
<stop stop-color="#0F50C9"/>
<stop offset="1" stop-color="white" stop-opacity="0"/>
</linearGradient>
</defs>
</svg>
