<svg width="326" height="157" viewBox="0 0 326 157" fill="none" xmlns="http://www.w3.org/2000/svg">
<g filter="url(#filter0_d_565_621)">
<g filter="url(#filter1_d_565_621)">
<rect x="31" y="30" width="264.26" height="94.2037" rx="7.34055" fill="white"/>
</g>
<circle cx="69.5379" cy="66.7027" r="19.5748" fill="#F0F5FE"/>
<g clip-path="url(#clip0_565_621)">
<path d="M66.9385 70.3165L63.3248 66.7028L62.0942 67.9247L66.9385 72.769L77.3376 62.3698L76.1157 61.1479L66.9385 70.3165Z" fill="#175FBE"/>
</g>
<path d="M106.769 63.3041C109.133 63.3041 110.88 61.9975 111.452 60.3826L109.441 59.4136C109.059 60.4707 108.09 61.2487 106.769 61.2487C104.831 61.2487 103.524 59.7953 103.524 57.6519C103.524 55.5231 104.831 54.0697 106.769 54.0697C108.09 54.0697 109.059 54.8478 109.441 55.9048L111.452 54.9359C110.88 53.321 109.133 52.0143 106.769 52.0143C103.598 52.0143 101.249 54.3927 101.249 57.6519C101.249 60.8964 103.627 63.3041 106.769 63.3041ZM116.326 63.3041C118.705 63.3041 120.613 61.5424 120.613 59.12C120.613 56.6976 118.705 54.9359 116.326 54.9359C113.948 54.9359 112.039 56.6976 112.039 59.12C112.039 61.5424 113.948 63.3041 116.326 63.3041ZM116.326 61.3222C115.122 61.3222 114.315 60.4119 114.315 59.12C114.315 57.8427 115.122 56.9178 116.326 56.9178C117.53 56.9178 118.338 57.8427 118.338 59.12C118.338 60.4119 117.53 61.3222 116.326 61.3222ZM130.626 54.9359C129.54 54.9359 128.644 55.435 128.189 56.1691C127.675 55.3616 126.824 54.9359 125.796 54.9359C124.827 54.9359 124.078 55.3176 123.697 56.081V55.1121H121.641V63.1279H123.843V58.4447C123.843 57.461 124.372 56.9178 125.15 56.9178C125.928 56.9178 126.457 57.461 126.457 58.4447V63.1279H128.659V58.4447C128.659 57.461 129.187 56.9178 129.965 56.9178C130.743 56.9178 131.272 57.461 131.272 58.4447V63.1279H133.474V57.9749C133.474 56.125 132.3 54.9359 130.626 54.9359ZM135.434 63.1279H137.636V57.0206H139.368V55.1121H137.636V54.8772C137.636 54.1725 138.076 53.8054 138.899 53.8054C139.045 53.8054 139.192 53.8201 139.383 53.8495V51.9703C139.177 51.9263 138.855 51.8969 138.605 51.8969C136.608 51.8969 135.434 52.9833 135.434 54.8772V55.1121H134.068V57.0206H135.434V63.1279ZM143.968 63.3041C146.346 63.3041 148.255 61.5424 148.255 59.12C148.255 56.6976 146.346 54.9359 143.968 54.9359C141.59 54.9359 139.681 56.6976 139.681 59.12C139.681 61.5424 141.59 63.3041 143.968 63.3041ZM143.968 61.3222C142.764 61.3222 141.957 60.4119 141.957 59.12C141.957 57.8427 142.764 56.9178 143.968 56.9178C145.172 56.9178 145.979 57.8427 145.979 59.12C145.979 60.4119 145.172 61.3222 143.968 61.3222ZM153.511 55.024C152.527 55.024 151.749 55.3176 151.338 56.3159V55.1121H149.283V63.1279H151.485V58.8117C151.485 57.6225 152.219 56.9325 153.291 56.9325H154.348V55.024H153.511ZM159.366 63.216C159.704 63.216 160.1 63.1867 160.394 63.1426V61.4102C160.188 61.4396 160.012 61.4543 159.88 61.4543C158.955 61.4543 158.514 61.0579 158.514 60.2358V57.0206H160.394V55.1121H158.514V52.7044H156.312V53.8788C156.312 54.701 155.857 55.1121 155.035 55.1121H154.932V57.0206H156.312V60.2358C156.312 62.1149 157.428 63.216 159.366 63.216ZM167.47 54.9359C165.767 54.9359 164.387 55.7874 163.918 57.1087L165.811 58.0189C166.046 57.2995 166.692 56.8444 167.47 56.8444C168.204 56.8444 168.704 57.2408 168.704 57.8427V58.107L166.193 58.6355C164.564 58.9732 163.624 59.7513 163.624 60.9404C163.624 62.2764 164.769 63.3041 166.59 63.3041C167.514 63.3041 168.248 63.0252 168.85 62.3939V63.1279H170.906V57.8427C170.906 56.125 169.511 54.9359 167.47 54.9359ZM166.927 61.6892C166.296 61.6892 165.899 61.3956 165.899 60.9111C165.899 60.5441 166.134 60.2651 166.59 60.1623L168.704 59.6926V60.0743C168.704 60.9698 167.925 61.6892 166.927 61.6892ZM176.38 54.9359C175.367 54.9359 174.545 55.3029 174.134 56.081V55.1121H172.079V63.1279H174.281V58.4447C174.281 57.5198 174.883 56.9178 175.749 56.9178C176.615 56.9178 177.217 57.5198 177.217 58.4447V63.1279H179.419V57.9749C179.419 56.1544 178.186 54.9359 176.38 54.9359ZM186.669 52.1905V55.7874C186.126 55.2442 185.319 54.9359 184.365 54.9359C182.089 54.9359 180.298 56.771 180.298 59.12C180.298 61.4543 182.045 63.3041 184.379 63.3041C185.363 63.3041 186.244 62.9811 186.816 62.3645V63.1279H188.872V52.1905H186.669ZM184.643 61.3222C183.44 61.3222 182.573 60.4119 182.573 59.12C182.573 57.8427 183.44 56.9178 184.643 56.9178C185.833 56.9178 186.669 57.8281 186.669 59.12C186.669 60.4266 185.833 61.3222 184.643 61.3222ZM199.06 52.1905H196.05L192.321 63.1279H194.729L195.463 60.8964H199.647L200.381 63.1279H202.789L199.06 52.1905ZM196.109 58.9145L197.563 54.4808L199.001 58.9145H196.109ZM203.936 63.1279H206.138V57.0206H207.871V55.1121H206.138V54.8772C206.138 54.1725 206.579 53.8054 207.401 53.8054C207.548 53.8054 207.694 53.8201 207.885 53.8495V51.9703C207.68 51.9263 207.357 51.8969 207.107 51.8969C205.111 51.8969 203.936 52.9833 203.936 54.8772V55.1121H202.571V57.0206H203.936V63.1279ZM209.398 63.1279H211.601V57.0206H213.333V55.1121H211.601V54.8772C211.601 54.1725 212.041 53.8054 212.863 53.8054C213.01 53.8054 213.157 53.8201 213.348 53.8495V51.9703C213.142 51.9263 212.819 51.8969 212.57 51.8969C210.573 51.8969 209.398 52.9833 209.398 54.8772V55.1121H208.033V57.0206H209.398V63.1279ZM217.933 63.3041C220.311 63.3041 222.22 61.5424 222.22 59.12C222.22 56.6976 220.311 54.9359 217.933 54.9359C215.554 54.9359 213.646 56.6976 213.646 59.12C213.646 61.5424 215.554 63.3041 217.933 63.3041ZM217.933 61.3222C216.729 61.3222 215.921 60.4119 215.921 59.12C215.921 57.8427 216.729 56.9178 217.933 56.9178C219.136 56.9178 219.944 57.8427 219.944 59.12C219.944 60.4119 219.136 61.3222 217.933 61.3222ZM227.476 55.024C226.492 55.024 225.714 55.3176 225.303 56.3159V55.1121H223.248V63.1279H225.45V58.8117C225.45 57.6225 226.184 56.9325 227.255 56.9325H228.313V55.024H227.476ZM235.129 52.1905V55.7874C234.585 55.2442 233.778 54.9359 232.824 54.9359C230.548 54.9359 228.757 56.771 228.757 59.12C228.757 61.4543 230.504 63.3041 232.838 63.3041C233.822 63.3041 234.703 62.9811 235.275 62.3645V63.1279H237.331V52.1905H235.129ZM233.103 61.3222C231.899 61.3222 231.033 60.4119 231.033 59.12C231.033 57.8427 231.899 56.9178 233.103 56.9178C234.292 56.9178 235.129 57.8281 235.129 59.12C235.129 60.4266 234.292 61.3222 233.103 61.3222ZM242.209 54.9359C240.506 54.9359 239.126 55.7874 238.656 57.1087L240.55 58.0189C240.785 57.2995 241.431 56.8444 242.209 56.8444C242.943 56.8444 243.442 57.2408 243.442 57.8427V58.107L240.932 58.6355C239.302 58.9732 238.363 59.7513 238.363 60.9404C238.363 62.2764 239.508 63.3041 241.328 63.3041C242.253 63.3041 242.987 63.0252 243.589 62.3939V63.1279H245.645V57.8427C245.645 56.125 244.25 54.9359 242.209 54.9359ZM241.666 61.6892C241.035 61.6892 240.638 61.3956 240.638 60.9111C240.638 60.5441 240.873 60.2651 241.328 60.1623L243.442 59.6926V60.0743C243.442 60.9698 242.664 61.6892 241.666 61.6892ZM251.325 54.9359C250.37 54.9359 249.563 55.2442 249.02 55.7874V52.1905H246.818V63.1279H248.873V62.3645C249.445 62.9811 250.326 63.3041 251.31 63.3041C253.644 63.3041 255.391 61.4543 255.391 59.12C255.391 56.771 253.6 54.9359 251.325 54.9359ZM251.046 61.3222C249.857 61.3222 249.02 60.4266 249.02 59.12C249.02 57.8281 249.857 56.9178 251.046 56.9178C252.25 56.9178 253.116 57.8427 253.116 59.12C253.116 60.4119 252.25 61.3222 251.046 61.3222ZM256.423 54.3927H258.626V52.1905H256.423V54.3927ZM256.423 63.1279H258.626V55.1121H256.423V63.1279ZM260.094 63.1279H262.296V52.1905H260.094V63.1279ZM263.764 54.3927H265.966V52.1905H263.764V54.3927ZM263.764 63.1279H265.966V55.1121H263.764V63.1279ZM271.281 63.216C271.618 63.216 272.015 63.1867 272.308 63.1426V61.4102C272.103 61.4396 271.927 61.4543 271.794 61.4543C270.87 61.4543 270.429 61.0579 270.429 60.2358V57.0206H272.308V55.1121H270.429V52.7044H268.227V53.8788C268.227 54.701 267.772 55.1121 266.95 55.1121H266.847V57.0206H268.227V60.2358C268.227 62.1149 269.343 63.216 271.281 63.216ZM278.744 55.1121L276.85 60.3092L274.956 55.1121H272.607L275.749 63.1279L275.543 63.583C275.352 64.0088 275.103 64.4933 274.222 64.4933C273.899 64.4933 273.503 64.4345 273.224 64.3465V66.1522C273.561 66.3284 274.016 66.4018 274.486 66.4018C276.644 66.4018 277.32 64.7722 277.613 64.0088L281.093 55.1121H278.744Z" fill="#175FBE"/>
<rect x="105.017" y="75.2666" width="166.997" height="6.72884" rx="3.36442" fill="#175FBE" fill-opacity="0.1"/>
<rect x="105.017" y="89.3362" width="111.332" height="6.72884" rx="3.36442" fill="#175FBE" fill-opacity="0.1"/>
</g>
<defs>
<filter id="filter0_d_565_621" x="0.384239" y="0.915027" width="325.491" height="155.435" filterUnits="userSpaceOnUse" color-interpolation-filters="sRGB">
<feFlood flood-opacity="0" result="BackgroundImageFix"/>
<feColorMatrix in="SourceAlpha" type="matrix" values="0 0 0 0 0 0 0 0 0 0 0 0 0 0 0 0 0 0 127 0" result="hardAlpha"/>
<feOffset dy="1.53079"/>
<feGaussianBlur stdDeviation="15.3079"/>
<feComposite in2="hardAlpha" operator="out"/>
<feColorMatrix type="matrix" values="0 0 0 0 0.741667 0 0 0 0 0.741667 0 0 0 0 0.741667 0 0 0 0.11 0"/>
<feBlend mode="normal" in2="BackgroundImageFix" result="effect1_dropShadow_565_621"/>
<feBlend mode="normal" in="SourceGraphic" in2="effect1_dropShadow_565_621" result="shape"/>
</filter>
<filter id="filter1_d_565_621" x="6.5315" y="7.97835" width="313.197" height="143.141" filterUnits="userSpaceOnUse" color-interpolation-filters="sRGB">
<feFlood flood-opacity="0" result="BackgroundImageFix"/>
<feColorMatrix in="SourceAlpha" type="matrix" values="0 0 0 0 0 0 0 0 0 0 0 0 0 0 0 0 0 0 127 0" result="hardAlpha"/>
<feOffset dy="2.44685"/>
<feGaussianBlur stdDeviation="12.2342"/>
<feComposite in2="hardAlpha" operator="out"/>
<feColorMatrix type="matrix" values="0 0 0 0 0.541667 0 0 0 0 0.541667 0 0 0 0 0.541667 0 0 0 0.04 0"/>
<feBlend mode="normal" in2="BackgroundImageFix" result="effect1_dropShadow_565_621"/>
<feBlend mode="normal" in="SourceGraphic" in2="effect1_dropShadow_565_621" result="shape"/>
</filter>
<clipPath id="clip0_565_621">
<rect width="20.7982" height="20.7982" fill="white" transform="translate(59.1389 56.3037)"/>
</clipPath>
</defs>
</svg>
