<svg width="326" height="151" viewBox="0 0 326 151" fill="none" xmlns="http://www.w3.org/2000/svg">
<g filter="url(#filter0_d_565_631)">
<g filter="url(#filter1_d_565_631)">
<rect x="31" y="30" width="264" height="88" rx="7.34055" fill="#175FBE"/>
</g>
<circle cx="69.5379" cy="66.7027" r="19.5748" fill="#F0F5FE"/>
<g clip-path="url(#clip0_565_631)">
<path d="M66.7997 70.0128L63.186 66.3991L61.9554 67.621L66.7997 72.4652L77.1988 62.0661L75.9769 60.8442L66.7997 70.0128Z" fill="#175FBE"/>
</g>
<path d="M101.616 63.1279H103.891V58.8998H108.149V63.1279H110.424V52.1905H108.149V56.9178H103.891V52.1905H101.616V63.1279ZM115.441 54.9359C113.738 54.9359 112.358 55.7874 111.889 57.1087L113.782 58.0189C114.017 57.2995 114.663 56.8444 115.441 56.8444C116.175 56.8444 116.675 57.2408 116.675 57.8427V58.107L114.164 58.6355C112.535 58.9732 111.595 59.7513 111.595 60.9404C111.595 62.2764 112.74 63.3041 114.561 63.3041C115.485 63.3041 116.219 63.0252 116.821 62.3939V63.1279H118.877V57.8427C118.877 56.125 117.482 54.9359 115.441 54.9359ZM114.898 61.6892C114.267 61.6892 113.871 61.3956 113.871 60.9111C113.871 60.5441 114.105 60.2651 114.561 60.1623L116.675 59.6926V60.0743C116.675 60.9698 115.897 61.6892 114.898 61.6892ZM123.294 63.3041C125.218 63.3041 126.554 62.2911 126.554 60.8083C126.554 59.6632 125.79 58.841 124.366 58.4593L122.883 58.063C122.619 57.9895 122.061 57.8427 122.061 57.3583C122.061 56.9472 122.443 56.6976 123.089 56.6976C123.955 56.6976 124.645 57.1087 124.909 57.7987L126.554 57.0353C126.04 55.7287 124.733 54.9359 123.089 54.9359C121.21 54.9359 119.932 55.9489 119.932 57.4317C119.932 58.5327 120.637 59.3842 122.09 59.766L123.5 60.133C123.779 60.2064 124.425 60.3679 124.425 60.8964C124.425 61.3368 123.984 61.6158 123.294 61.6158C122.384 61.6158 121.665 61.1313 121.239 60.2358L119.609 60.9992C120.108 62.4526 121.547 63.3041 123.294 63.3041ZM130.821 63.3041C132.744 63.3041 134.08 62.2911 134.08 60.8083C134.08 59.6632 133.317 58.841 131.893 58.4593L130.41 58.063C130.146 57.9895 129.588 57.8427 129.588 57.3583C129.588 56.9472 129.97 56.6976 130.616 56.6976C131.482 56.6976 132.172 57.1087 132.436 57.7987L134.08 57.0353C133.567 55.7287 132.26 54.9359 130.616 54.9359C128.737 54.9359 127.459 55.9489 127.459 57.4317C127.459 58.5327 128.164 59.3842 129.617 59.766L131.027 60.133C131.306 60.2064 131.952 60.3679 131.952 60.8964C131.952 61.3368 131.511 61.6158 130.821 61.6158C129.911 61.6158 129.192 61.1313 128.766 60.2358L127.136 60.9992C127.635 62.4526 129.074 63.3041 130.821 63.3041ZM135.104 63.1279H137.306V52.1905H135.104V63.1279ZM146.364 58.8851C146.364 56.6682 144.632 54.9359 142.385 54.9359C140.095 54.9359 138.333 56.7123 138.333 59.1053C138.333 61.4249 139.992 63.3041 142.532 63.3041C144.177 63.3041 145.498 62.526 145.982 61.3515L144.221 60.5147C143.912 61.0579 143.34 61.3956 142.562 61.3956C141.475 61.3956 140.756 60.7496 140.624 59.7366H146.261C146.335 59.5164 146.364 59.2081 146.364 58.8851ZM140.668 58.1217C140.888 57.1968 141.519 56.6976 142.385 56.6976C143.296 56.6976 143.942 57.2702 144.03 58.1217H140.668ZM147.878 63.1279H150.081V57.0206H151.813V55.1121H150.081V54.8772C150.081 54.1725 150.521 53.8054 151.343 53.8054C151.49 53.8054 151.637 53.8201 151.828 53.8495V51.9703C151.622 51.9263 151.299 51.8969 151.049 51.8969C149.053 51.8969 147.878 52.9833 147.878 54.8772V55.1121H146.513V57.0206H147.878V63.1279ZM156.938 55.024C155.954 55.024 155.176 55.3176 154.765 56.3159V55.1121H152.709V63.1279H154.912V58.8117C154.912 57.6225 155.646 56.9325 156.717 56.9325H157.774V55.024H156.938ZM166.249 58.8851C166.249 56.6682 164.517 54.9359 162.271 54.9359C159.981 54.9359 158.219 56.7123 158.219 59.1053C158.219 61.4249 159.878 63.3041 162.418 63.3041C164.062 63.3041 165.383 62.526 165.868 61.3515L164.106 60.5147C163.798 61.0579 163.225 61.3956 162.447 61.3956C161.361 61.3956 160.641 60.7496 160.509 59.7366H166.147C166.22 59.5164 166.249 59.2081 166.249 58.8851ZM160.553 58.1217C160.773 57.1968 161.405 56.6976 162.271 56.6976C163.181 56.6976 163.827 57.2702 163.915 58.1217H160.553ZM174.723 58.8851C174.723 56.6682 172.99 54.9359 170.744 54.9359C168.454 54.9359 166.692 56.7123 166.692 59.1053C166.692 61.4249 168.351 63.3041 170.891 63.3041C172.535 63.3041 173.856 62.526 174.341 61.3515L172.579 60.5147C172.271 61.0579 171.698 61.3956 170.92 61.3956C169.834 61.3956 169.114 60.7496 168.982 59.7366H174.62C174.693 59.5164 174.723 59.2081 174.723 58.8851ZM169.026 58.1217C169.247 57.1968 169.878 56.6976 170.744 56.6976C171.654 56.6976 172.3 57.2702 172.388 58.1217H169.026ZM181.65 54.9359C179.947 54.9359 178.567 55.7874 178.097 57.1087L179.991 58.0189C180.226 57.2995 180.872 56.8444 181.65 56.8444C182.384 56.8444 182.883 57.2408 182.883 57.8427V58.107L180.372 58.6355C178.743 58.9732 177.803 59.7513 177.803 60.9404C177.803 62.2764 178.948 63.3041 180.769 63.3041C181.694 63.3041 182.428 63.0252 183.03 62.3939V63.1279H185.085V57.8427C185.085 56.125 183.69 54.9359 181.65 54.9359ZM181.107 61.6892C180.475 61.6892 180.079 61.3956 180.079 60.9111C180.079 60.5441 180.314 60.2651 180.769 60.1623L182.883 59.6926V60.0743C182.883 60.9698 182.105 61.6892 181.107 61.6892ZM190.56 54.9359C189.547 54.9359 188.725 55.3029 188.313 56.081V55.1121H186.258V63.1279H188.46V58.4447C188.46 57.5198 189.062 56.9178 189.928 56.9178C190.795 56.9178 191.396 57.5198 191.396 58.4447V63.1279H193.599V57.9749C193.599 56.1544 192.365 54.9359 190.56 54.9359ZM200.849 52.1905V55.7874C200.306 55.2442 199.498 54.9359 198.544 54.9359C196.268 54.9359 194.477 56.771 194.477 59.12C194.477 61.4543 196.224 63.3041 198.559 63.3041C199.542 63.3041 200.423 62.9811 200.996 62.3645V63.1279H203.051V52.1905H200.849ZM198.823 61.3222C197.619 61.3222 196.753 60.4119 196.753 59.12C196.753 57.8427 197.619 56.9178 198.823 56.9178C200.012 56.9178 200.849 57.8281 200.849 59.12C200.849 60.4266 200.012 61.3222 198.823 61.3222ZM218.539 57.6519C218.539 54.4367 216.058 52.0143 212.74 52.0143C209.422 52.0143 206.941 54.4367 206.941 57.6519C206.941 60.867 209.437 63.3041 212.74 63.3041C213.269 63.3041 213.783 63.2454 214.267 63.1279L215.339 65.0365H217.747L216.161 62.2764C217.629 61.2634 218.539 59.6045 218.539 57.6519ZM212.74 61.2487C210.744 61.2487 209.217 59.766 209.217 57.6519C209.217 55.5378 210.744 54.0697 212.74 54.0697C214.737 54.0697 216.264 55.5378 216.264 57.6519C216.264 58.797 215.823 59.7513 215.089 60.3972L214.15 58.753H211.83L213.21 61.2194C213.049 61.2341 212.902 61.2487 212.74 61.2487ZM224.784 55.1121V59.7953C224.784 60.7202 224.182 61.3222 223.316 61.3222C222.45 61.3222 221.848 60.7202 221.848 59.7953V55.1121H219.646V59.9862C219.646 61.9534 220.893 63.3041 222.729 63.3041C223.727 63.3041 224.52 62.9077 224.931 62.159V63.1279H226.986V55.1121H224.784ZM228.452 54.3927H230.654V52.1905H228.452V54.3927ZM228.452 63.1279H230.654V55.1121H228.452V63.1279ZM235.925 63.3041C237.745 63.3041 239.213 62.2764 239.668 60.8524L237.789 59.9275C237.54 60.779 236.835 61.3222 235.925 61.3222C234.765 61.3222 233.957 60.4119 233.957 59.12C233.957 57.8281 234.765 56.9178 235.925 56.9178C236.82 56.9178 237.54 57.461 237.789 58.3125L239.668 57.4023C239.184 55.9195 237.716 54.9359 235.925 54.9359C233.502 54.9359 231.682 56.727 231.682 59.1053C231.682 61.4983 233.517 63.3041 235.925 63.3041ZM248.201 55.1121H245.632L242.755 58.151V52.1905H240.552V63.1279H242.755V61.1166L243.87 59.9128L245.808 63.1279H248.201L245.294 58.3419L248.201 55.1121Z" fill="white"/>
<rect x="101" y="75.2666" width="166.997" height="6.72884" rx="3.36442" fill="#E1EAFE" fill-opacity="0.31"/>
<rect x="101" y="89.3362" width="111.332" height="6.72884" rx="3.36442" fill="#E1EAFE" fill-opacity="0.31"/>
</g>
<defs>
<filter id="filter0_d_565_631" x="0.384239" y="0.915027" width="325.232" height="149.232" filterUnits="userSpaceOnUse" color-interpolation-filters="sRGB">
<feFlood flood-opacity="0" result="BackgroundImageFix"/>
<feColorMatrix in="SourceAlpha" type="matrix" values="0 0 0 0 0 0 0 0 0 0 0 0 0 0 0 0 0 0 127 0" result="hardAlpha"/>
<feOffset dy="1.53079"/>
<feGaussianBlur stdDeviation="15.3079"/>
<feComposite in2="hardAlpha" operator="out"/>
<feColorMatrix type="matrix" values="0 0 0 0 0.741667 0 0 0 0 0.741667 0 0 0 0 0.741667 0 0 0 0.11 0"/>
<feBlend mode="normal" in2="BackgroundImageFix" result="effect1_dropShadow_565_631"/>
<feBlend mode="normal" in="SourceGraphic" in2="effect1_dropShadow_565_631" result="shape"/>
</filter>
<filter id="filter1_d_565_631" x="6.5315" y="7.97835" width="312.937" height="136.937" filterUnits="userSpaceOnUse" color-interpolation-filters="sRGB">
<feFlood flood-opacity="0" result="BackgroundImageFix"/>
<feColorMatrix in="SourceAlpha" type="matrix" values="0 0 0 0 0 0 0 0 0 0 0 0 0 0 0 0 0 0 127 0" result="hardAlpha"/>
<feOffset dy="2.44685"/>
<feGaussianBlur stdDeviation="12.2342"/>
<feComposite in2="hardAlpha" operator="out"/>
<feColorMatrix type="matrix" values="0 0 0 0 0.541667 0 0 0 0 0.541667 0 0 0 0 0.541667 0 0 0 0.04 0"/>
<feBlend mode="normal" in2="BackgroundImageFix" result="effect1_dropShadow_565_631"/>
<feBlend mode="normal" in="SourceGraphic" in2="effect1_dropShadow_565_631" result="shape"/>
</filter>
<clipPath id="clip0_565_631">
<rect width="20.7982" height="20.7982" fill="white" transform="translate(59 56)"/>
</clipPath>
</defs>
</svg>
